<?xml version="1.0" encoding="UTF-8"?>
<svg xmlns="http://www.w3.org/2000/svg" width="900" height="900" viewBox="0 0 900 900" role="img" aria-labelledby="title desc">
  <title id="title">AI 小说阅读 App 下载二维码</title>
  <desc id="desc">微信扫码打开 https://novel.gwaves.net:8888/downloads/ai_novel_reader.apk 下载 Android APK。</desc>
  <rect width="900" height="900" rx="34" fill="#ffffff"/>
  <rect x="30" y="30" width="840" height="840" rx="32" fill="#f8fafc" stroke="#d7dee8" stroke-width="2"/>
  <text x="450" y="96" text-anchor="middle" font-family="PingFang SC, Microsoft YaHei, Noto Sans CJK SC, Arial, sans-serif" font-size="38" font-weight="700" fill="#102033">AI 小说阅读 App</text>
  <text x="450" y="142" text-anchor="middle" font-family="PingFang SC, Microsoft YaHei, Noto Sans CJK SC, Arial, sans-serif" font-size="24" fill="#42526b">微信扫码下载 Android 安装包</text>
  <rect x="160" y="170" width="580" height="580" rx="24" fill="#ffffff" stroke="#d7dee8" stroke-width="2"/>
  <svg x="190" y="200" width="520" height="520" viewBox="0 0 49 49" shape-rendering="crispEdges">
    <path fill="#ffffff" d="M0 0h49v49H0z"/>
    <path stroke="#000000" d="M2 2.5h7m1 0h1m3 0h2m1 0h4m1 0h1m2 0h2m1 0h5m1 0h2m2 0h1m1 0h7M2 3.5h1m5 0h1m1 0h1m2 0h3m4 0h5m8 0h1m1 0h1m1 0h1m2 0h1m5 0h1M2 4.5h1m1 0h3m1 0h1m1 0h2m1 0h1m1 0h1m1 0h2m3 0h4m1 0h6m2 0h1m1 0h1m2 0h1m1 0h3m1 0h1M2 5.5h1m1 0h3m1 0h1m2 0h1m2 0h1m3 0h2m1 0h2m2 0h3m2 0h1m1 0h3m2 0h2m1 0h1m1 0h3m1 0h1M2 6.5h1m1 0h3m1 0h1m2 0h1m1 0h1m1 0h1m2 0h10m4 0h1m1 0h1m1 0h3m1 0h1m1 0h3m1 0h1M2 7.5h1m5 0h1m1 0h1m3 0h1m2 0h3m1 0h2m3 0h2m1 0h1m1 0h1m1 0h3m4 0h1m5 0h1M2 8.5h7m1 0h1m1 0h1m1 0h1m1 0h1m1 0h1m1 0h1m1 0h1m1 0h1m1 0h1m1 0h1m1 0h1m1 0h1m1 0h1m1 0h1m1 0h1m1 0h7M10 9.5h2m3 0h1m5 0h2m3 0h1m2 0h1m2 0h3m1 0h1m1 0h1M4 10.5h3m1 0h1m1 0h1m1 0h3m4 0h1m1 0h8m1 0h4m2 0h2m1 0h3m2 0h3M2 11.5h1m1 0h2m6 0h1m2 0h3m1 0h4m4 0h1m3 0h5m1 0h2m2 0h2m1 0h1m1 0h1M2 12.5h2m1 0h1m1 0h2m1 0h1m1 0h2m2 0h2m1 0h1m2 0h1m1 0h1m5 0h1m2 0h5m2 0h2m1 0h2M3 13.5h1m1 0h1m1 0h1m4 0h3m4 0h1m3 0h2m1 0h1m3 0h1m1 0h1m1 0h2m1 0h1m5 0h4M6 14.5h3m1 0h2m1 0h2m1 0h2m1 0h1m1 0h2m1 0h2m3 0h1m3 0h1m2 0h2M3 15.5h3m1 0h1m2 0h1m1 0h2m2 0h2m5 0h2m1 0h1m4 0h5m1 0h3m5 0h2M2 16.5h2m2 0h1m1 0h1m1 0h1m2 0h2m1 0h1m1 0h6m1 0h2m2 0h2m2 0h5m1 0h4m1 0h1M2 17.5h1m2 0h2m2 0h3m1 0h5m1 0h1m2 0h1m1 0h2m2 0h2m2 0h3m2 0h1m3 0h4M4 18.5h2m1 0h2m2 0h2m1 0h2m3 0h2m1 0h1m3 0h3m2 0h3m2 0h2m1 0h1m1 0h1m1 0h1m2 0h1M4 19.5h1m5 0h1m4 0h1m3 0h1m2 0h2m3 0h4m1 0h2m3 0h3m1 0h1m1 0h1m2 0h1M2 20.5h5m1 0h1m2 0h2m3 0h1m1 0h2m1 0h4m1 0h1m4 0h3m1 0h8M2 21.5h3m2 0h1m1 0h3m1 0h3m4 0h2m1 0h2m5 0h2m1 0h2m2 0h8M4 22.5h8m2 0h1m4 0h2m1 0h6m2 0h1m2 0h1m1 0h2m1 0h5m2 0h2M3 23.5h1m2 0h1m3 0h1m3 0h1m2 0h1m1 0h2m1 0h1m3 0h1m1 0h2m1 0h1m1 0h2m2 0h2m3 0h1m3 0h1M3 24.5h1m1 0h2m1 0h1m1 0h1m1 0h1m2 0h8m1 0h1m1 0h1m1 0h1m1 0h1m1 0h5m1 0h1m1 0h1m1 0h1m1 0h2M3 25.5h2m1 0h1m3 0h1m3 0h1m1 0h1m2 0h1m2 0h1m3 0h3m2 0h1m1 0h1m1 0h2m1 0h1m3 0h1m1 0h3M2 26.5h2m1 0h9m2 0h1m4 0h6m1 0h5m3 0h1m1 0h6m2 0h1M2 27.5h3m6 0h1m5 0h3m6 0h2m1 0h1m1 0h1m1 0h1m1 0h1m1 0h4m2 0h1m2 0h1M2 28.5h1m1 0h3m1 0h2m3 0h1m3 0h1m2 0h1m1 0h1m2 0h4m2 0h1m3 0h1m1 0h1m1 0h1m2 0h2m1 0h1M2 29.5h3m2 0h1m4 0h4m1 0h1m2 0h3m2 0h1m1 0h2m2 0h1m1 0h1m2 0h2m2 0h1m2 0h3M2 30.5h2m1 0h2m1 0h2m4 0h3m1 0h4m4 0h2m1 0h1m3 0h1m2 0h1m2 0h2m1 0h1m2 0h1M2 31.5h2m1 0h1m3 0h1m1 0h1m1 0h1m2 0h1m7 0h1m3 0h1m2 0h2m5 0h3m2 0h4M8 32.5h2m1 0h3m4 0h1m1 0h1m2 0h1m2 0h3m1 0h1m1 0h5m1 0h2m1 0h1m2 0h2M3 33.5h1m2 0h1m2 0h2m1 0h2m1 0h2m3 0h4m2 0h4m1 0h1m2 0h1m1 0h2m2 0h1m2 0h2M2 34.5h1m2 0h1m2 0h3m2 0h1m3 0h1m3 0h3m1 0h3m1 0h1m1 0h3m1 0h2m1 0h3m1 0h1m2 0h1M5 35.5h3m4 0h1m1 0h2m1 0h1m4 0h1m3 0h2m3 0h2m4 0h1m2 0h1m2 0h4M6 36.5h1m1 0h2m1 0h1m1 0h1m4 0h2m1 0h1m2 0h1m2 0h2m3 0h8m4 0h1M3 37.5h4m2 0h1m3 0h2m2 0h2m2 0h1m2 0h1m3 0h2m4 0h1m1 0h2m2 0h1m2 0h2m1 0h1M2 38.5h1m2 0h2m1 0h1m1 0h1m1 0h2m4 0h1m3 0h12m1 0h2m1 0h6m2 0h1M10 39.5h3m1 0h1m6 0h2m3 0h1m2 0h2m3 0h1m3 0h1m3 0h3m1 0h1M2 40.5h7m2 0h2m1 0h1m1 0h1m3 0h1m1 0h1m1 0h1m1 0h3m2 0h6m1 0h1m1 0h1m1 0h2m1 0h1M2 41.5h1m5 0h1m5 0h1m1 0h1m2 0h2m1 0h1m3 0h1m1 0h1m2 0h1m2 0h1m2 0h2m3 0h4M2 42.5h1m1 0h3m1 0h1m1 0h1m2 0h2m1 0h1m1 0h2m2 0h7m1 0h2m1 0h1m4 0h6m1 0h1M2 43.5h1m1 0h3m1 0h1m1 0h5m1 0h1m1 0h1m3 0h3m1 0h1m7 0h1m6 0h2m2 0h2M2 44.5h1m1 0h3m1 0h1m1 0h2m3 0h1m3 0h3m2 0h2m1 0h1m3 0h10m3 0h1M2 45.5h1m5 0h1m6 0h5m1 0h5m3 0h1m1 0h2m3 0h1m7 0h1M2 46.5h7m2 0h9m1 0h1m4 0h1m2 0h1m1 0h11m1 0h1m1 0h1"/>
  </svg>
  <text x="450" y="806" text-anchor="middle" font-family="PingFang SC, Microsoft YaHei, Noto Sans CJK SC, Arial, sans-serif" font-size="22" font-weight="600" fill="#102033">下载地址</text>
  <text x="450" y="842" text-anchor="middle" font-family="Arial, sans-serif" font-size="20" fill="#42526b">https://novel.gwaves.net:8888/downloads/ai_novel_reader.apk</text>
</svg>
